# xmcd
#
# Track frame offsets:
# 150
# 15668
# 26061
# 38495
# 57410
# 72755
# 89098
# 98821
# 120035
# 138433
# 172575
# 202693
# 225053
# 251061
#
# Disc length: 3909 seconds
#
# Revision: 0
# Processed by: cddbd v1.5.1PL2 Copyright (c) Steve Scherf et al.
# Submitted via: Audion 3.0.2 (http://www.panic.com/audion/)
#
DISCID=a00f430e
DTITLE=r - r
DYEAR=1900
DGENRE=
TTITLE0=y
TTITLE1=y
TTITLE2=y
TTITLE3=y
TTITLE4=y
TTITLE5=y
TTITLE6=y
TTITLE7=y
TTITLE8=y
TTITLE9=y
TTITLE10=y
TTITLE11=y
TTITLE12=y
TTITLE13=y
EXTD=
EXTT0=
EXTT1=
EXTT2=
EXTT3=
EXTT4=
EXTT5=
EXTT6=
EXTT7=
EXTT8=
EXTT9=
EXTT10=
EXTT11=
EXTT12=
EXTT13=
PLAYORDER=
